<svg id="SvgjsSvg1001" width="288" height="288" xmlns="http://www.w3.org/2000/svg" version="1.1" xmlns:xlink="http://www.w3.org/1999/xlink" xmlns:svgjs="http://svgjs.com/svgjs"><defs id="SvgjsDefs1002"></defs><g id="SvgjsG1008" transform="matrix(0.9167,0,0,0.9167,11.995200000000011,11.995200000000011)"><svg xmlns="http://www.w3.org/2000/svg" viewBox="0 0 24 24" width="288" height="288"><g data-name="Layer 2" fill="#00c2cb" class="color000 svgShape"><g data-name="shopping-cart" fill="#00c2cb" class="color000 svgShape"><rect width="24" height="24" opacity="0" fill="#00c2cb" class="color000 svgShape"></rect><path d="M21.08 7a2 2 0 0 0-1.7-1H6.58L6 3.74A1 1 0 0 0 5 3H3a1 1 0 0 0 0 2h1.24L7 15.26A1 1 0 0 0 8 16h9a1 1 0 0 0 .89-.55l3.28-6.56A2 2 0 0 0 21.08 7zm-4.7 7H8.76L7.13 8h12.25z" fill="#00c2cb" class="color000 svgShape"></path><circle cx="7.5" cy="19.5" r="1.5" fill="#00c2cb" class="color000 svgShape"></circle><circle cx="17.5" cy="19.5" r="1.5" fill="#00c2cb" class="color000 svgShape"></circle></g></g></svg></g></svg>